<svg width="30" height="31" fill="none" xmlns="http://www.w3.org/2000/svg">
  <g clip-path="url(#a)">
    <path fill-rule="evenodd" clip-rule="evenodd" d="M14.14 15.41a6.67 6.67 0 1 0 0-13.34 6.67 6.67 0 0 0 0 13.34Zm7.97-6.67c0 2.95-1.6 5.53-3.99 6.9h3.4a1 1 0 0 1 1 1V20h3.1a1 1 0 0 1 1 1v2.89a1 1 0 0 1-1 1h-.72v3.38a1 1 0 0 1-1 1H4.37a1 1 0 0 1-1-1v-3.7a1 1 0 0 1 1-1h1.8V21.3h-1.7a1 1 0 0 1-1-1v-3.65a1 1 0 0 1 1-1h5.67A7.97 7.97 0 1 1 22.1 8.74Zm-17.33 8.2V20h16.44v-3.05H4.78ZM7 24.88l.16.02H23.6v3.08H4.67v-3.1H7Zm17.06-1.28h1.26v-2.3H7.46v2.27H23.9c.05 0 .1 0 .16.02ZM15.3 10.82c-.2.22-.5.36-.9.43V9.07a4.38 4.38 0 0 1 .79.3c.1.07.19.16.25.26.07.1.11.22.12.36.03.33-.06.6-.26.83Zm-2.03-4.56c.14-.07.32-.12.52-.15v1.97a4.45 4.45 0 0 1-.41-.13 1.64 1.64 0 0 1-.35-.18.8.8 0 0 1-.34-.61.8.8 0 0 1 .04-.35.8.8 0 0 1 .19-.31c.09-.1.2-.17.35-.24Zm1.83 2.13a10.9 10.9 0 0 0-.7-.17l-.01-2.14c.15.01.29.04.41.08a3.36 3.36 0 0 1 .58.23.5.5 0 0 0 .18.04c.1 0 .17-.06.23-.17l.03-.04c.1-.17.06-.4-.11-.5a2.66 2.66 0 0 0-1.32-.4v-.59a.3.3 0 0 0-.32-.3h-.04a.25.25 0 0 0-.18.1.24.24 0 0 0-.06.16v.65a2.48 2.48 0 0 0-1.54.69c-.17.18-.29.38-.37.6a1.72 1.72 0 0 0 .13 1.41c.13.19.28.34.47.46.19.12.4.22.62.28.23.07.46.12.7.17v2.34a2.04 2.04 0 0 1-.97-.29l-.3-.17a.39.39 0 0 0-.23-.07c-.05 0-.1.02-.14.05a.37.37 0 0 0-.1.1l-.08.13c-.1.17-.06.4.1.5a3.22 3.22 0 0 0 1.72.5v.7c0 .18.15.32.32.3h.03c.08 0 .14-.03.18-.08a.25.25 0 0 0 .07-.17v-.77c.35-.05.66-.14.92-.27.27-.14.5-.3.67-.5a2 2 0 0 0 .47-1.46c-.03-.29-.1-.52-.23-.7a1.49 1.49 0 0 0-.48-.43c-.2-.12-.4-.2-.65-.27Z" fill="currentColor"/>
  </g>
  <defs>
    <clipPath id="a">
      <path fill="none" d="M0 .02h30v30H0z"/>
    </clipPath>
  </defs>
</svg>
