<svg width="30" height="31" fill="none" xmlns="http://www.w3.org/2000/svg">
  <path fill-rule="evenodd" clip-rule="evenodd" d="M20.19 5.21a9.81 9.81 0 1 0 0 19.63 9.81 9.81 0 0 0 0-19.63Zm0 18.15a8.36 8.36 0 0 1-8.34-8.34 8.36 8.36 0 0 1 8.34-8.34 8.36 8.36 0 0 1 8.34 8.34 8.36 8.36 0 0 1-8.34 8.34Zm0-9.18-3.78-2.19a.74.74 0 0 0-1.02.27.74.74 0 0 0 .27 1.02l4.14 2.4a.8.8 0 0 0 .51.07c.14 0 .27-.04.39-.13l5.07-3.51a.73.73 0 0 0 .18-1.02.73.73 0 0 0-1.02-.18l-4.75 3.27Zm-18.24-3.9h6.84c.36 0 .66-.3.66-.66 0-.36-.3-.66-.66-.66H1.95c-.36 0-.66.3-.66.66 0 .36.3.66.66.66Zm5.55 3.45H.66a.65.65 0 0 1-.66-.66c0-.36.3-.66.66-.66H7.5c.36 0 .66.3.66.66 0 .36-.3.66-.66.66Zm.63 2.82c0-.36-.3-.66-.66-.66H.66c-.36 0-.66.3-.66.66 0 .36.3.66.66.66H7.5c.36 0 .63-.3.63-.66Zm.66 2.82c.36 0 .66.3.66.66 0 .36-.3.63-.66.66H1.95a.67.67 0 0 1-.66-.66c0-.36.3-.66.66-.66h6.84Z" fill="currentColor"/>
</svg>
